<?xml version="1.0" encoding="UTF-8" standalone="no"?>
<!-- Generator: Gravit.io -->

<svg
   style="isolation:isolate"
   viewBox="0 0 48 48"
   width="48pt"
   height="48pt"
   version="1.1"
   id="svg6"
   sodipodi:docname="folder-pictures.svg"
   inkscape:version="1.4.4 (unknown)"
   xmlns:inkscape="http://www.inkscape.org/namespaces/inkscape"
   xmlns:sodipodi="http://sodipodi.sourceforge.net/DTD/sodipodi-0.dtd"
   xmlns="http://www.w3.org/2000/svg"
   xmlns:svg="http://www.w3.org/2000/svg">
  <defs
     id="defs6" />
  <sodipodi:namedview
     id="namedview6"
     pagecolor="#ffffff"
     bordercolor="#000000"
     borderopacity="0.25"
     inkscape:showpageshadow="2"
     inkscape:pageopacity="0.0"
     inkscape:pagecheckerboard="0"
     inkscape:deskcolor="#d1d1d1"
     inkscape:document-units="pt"
     inkscape:zoom="17.456699"
     inkscape:cx="26.035851"
     inkscape:cy="32.480368"
     inkscape:window-width="1920"
     inkscape:window-height="1010"
     inkscape:window-x="0"
     inkscape:window-y="0"
     inkscape:window-maximized="1"
     inkscape:current-layer="svg6" />
  <linearGradient
     id="_lgradient_28"
     x1="0"
     y1="0.5"
     x2="1"
     y2="0.5"
     gradientTransform="matrix(44.982,0,0,10,1.247,10.208)"
     gradientUnits="userSpaceOnUse">
    <stop
       offset="0"
       stop-opacity="1"
       style="stop-color:#ec006e;stop-opacity:1;"
       id="stop1" />
    <stop
       offset="1"
       stop-opacity="1"
       style="stop-color:#3b82f6;stop-opacity:1;"
       id="stop2" />
  </linearGradient>
  <path
     d=" M 1.247 13.3 L 1.247 20.208 L 46.229 20.208 L 46.229 17.465 C 46.229 15.809 44.885 14.464 43.229 14.463 L 21.116 14.446 C 20.564 14.445 19.799 14.128 19.409 13.737 L 17.299 11.623 C 16.519 10.842 14.99 10.214 13.886 10.221 L 4.247 10.281 C 2.591 10.292 1.247 11.644 1.247 13.3 Z "
     fill="url(#_lgradient_28)"
     id="path2" />
  <path
     d=" M 1.738 13.715 L 1.738 40.791 C 1.738 42.404 3.048 43.714 4.662 43.714 L 42.814 43.714 C 44.428 43.714 45.738 42.404 45.738 40.791 L 45.738 17.759 C 45.738 16.145 44.428 14.834 42.814 14.833 L 21.17 14.817 C 20.632 14.816 19.885 14.508 19.504 14.129 L 17.44 12.076 C 16.677 11.318 15.184 10.708 14.108 10.714 L 4.662 10.773 C 3.048 10.783 1.738 12.101 1.738 13.715 Z "
     fill="rgb(26,29,35)"
     id="path3" />
  <path
     d=" M 6.5 16 L 41.5 16 C 42.604 16 43.5 16.896 43.5 18 L 43.5 28 C 43.5 29.104 42.604 30 41.5 30 L 6.5 30 C 5.396 30 4.5 29.104 4.5 28 L 4.5 18 C 4.5 16.896 5.396 16 6.5 16 Z "
     fill="rgb(168,168,168)"
     id="path4" />
  <path
     d=" M 1.247 19.465 L 1.247 43.208 C 1.247 44.864 2.591 46.208 4.247 46.208 L 43.229 46.208 C 44.885 46.208 46.229 44.864 46.229 43.208 L 46.229 19.465 L 21.116 19.446 C 20.564 19.445 19.668 19.445 19.116 19.446 L 1.247 19.465 Z "
     fill="rgb(26,29,35)"
     id="path5" />
  <path
     d=" M 11.339 38.859 L 17.245 32.953 C 17.643 32.556 18.282 32.559 18.675 32.959 L 20.553 34.873 C 20.946 35.273 21.577 35.267 21.961 34.859 L 27.614 28.848 C 27.998 28.44 28.593 28.464 28.942 28.903 L 36.755 38.707 C 37.453 39.583 37.11 40.295 35.99 40.295 L 11.934 40.295 C 10.813 40.295 10.547 39.651 11.339 38.859 Z  M 13.215 27.897 C 13.215 26.496 14.352 25.359 15.754 25.359 C 17.155 25.359 18.292 26.496 18.292 27.897 C 18.292 29.299 17.155 30.436 15.754 30.436 C 14.352 30.436 13.215 29.299 13.215 27.897 Z "
     fill-rule="evenodd"
     fill="rgb(103,106,115)"
     id="path6" />
</svg>
