<?xml version="1.0" encoding="UTF-8" standalone="no"?>
<!-- Generator: Gravit.io -->

<svg
   style="isolation:isolate"
   viewBox="0 0 48 48"
   width="48pt"
   height="48pt"
   version="1.1"
   id="svg7"
   sodipodi:docname="folder-music.svg"
   inkscape:version="1.4.4 (unknown)"
   xmlns:inkscape="http://www.inkscape.org/namespaces/inkscape"
   xmlns:sodipodi="http://sodipodi.sourceforge.net/DTD/sodipodi-0.dtd"
   xmlns="http://www.w3.org/2000/svg"
   xmlns:svg="http://www.w3.org/2000/svg">
  <defs
     id="defs7" />
  <sodipodi:namedview
     id="namedview7"
     pagecolor="#ffffff"
     bordercolor="#000000"
     borderopacity="0.25"
     inkscape:showpageshadow="2"
     inkscape:pageopacity="0.0"
     inkscape:pagecheckerboard="0"
     inkscape:deskcolor="#d1d1d1"
     inkscape:document-units="pt"
     inkscape:zoom="12.34375"
     inkscape:cx="31.959494"
     inkscape:cy="32"
     inkscape:window-width="1920"
     inkscape:window-height="1010"
     inkscape:window-x="0"
     inkscape:window-y="0"
     inkscape:window-maximized="1"
     inkscape:current-layer="svg7" />
  <linearGradient
     id="_lgradient_37"
     x1="0"
     y1="0.5"
     x2="1"
     y2="0.5"
     gradientTransform="matrix(44.982,0,0,10,1.247,10.208)"
     gradientUnits="userSpaceOnUse">
    <stop
       offset="0"
       stop-opacity="1"
       style="stop-color:#ec006e;stop-opacity:1;"
       id="stop1" />
    <stop
       offset="1"
       stop-opacity="1"
       style="stop-color:#3b82f6;stop-opacity:1;"
       id="stop2" />
  </linearGradient>
  <path
     d=" M 1.247 13.3 L 1.247 20.208 L 46.229 20.208 L 46.229 17.465 C 46.229 15.809 44.885 14.464 43.229 14.463 L 21.116 14.446 C 20.564 14.445 19.799 14.128 19.409 13.737 L 17.299 11.623 C 16.519 10.842 14.99 10.214 13.886 10.221 L 4.247 10.281 C 2.591 10.292 1.247 11.644 1.247 13.3 Z "
     fill="url(#_lgradient_37)"
     id="path2" />
  <path
     d=" M 1.738 13.715 L 1.738 40.791 C 1.738 42.404 3.048 43.714 4.662 43.714 L 42.814 43.714 C 44.428 43.714 45.738 42.404 45.738 40.791 L 45.738 17.759 C 45.738 16.145 44.428 14.834 42.814 14.833 L 21.17 14.817 C 20.632 14.816 19.885 14.508 19.504 14.129 L 17.44 12.076 C 16.677 11.318 15.184 10.708 14.108 10.714 L 4.662 10.773 C 3.048 10.783 1.738 12.101 1.738 13.715 Z "
     fill="rgb(26,29,35)"
     id="path3" />
  <path
     d=" M 6.5 16 L 41.5 16 C 42.604 16 43.5 16.896 43.5 18 L 43.5 28 C 43.5 29.104 42.604 30 41.5 30 L 6.5 30 C 5.396 30 4.5 29.104 4.5 28 L 4.5 18 C 4.5 16.896 5.396 16 6.5 16 Z "
     fill="rgb(168,168,168)"
     id="path4" />
  <path
     d=" M 1.247 19.465 L 1.247 43.208 C 1.247 44.864 2.591 46.208 4.247 46.208 L 43.229 46.208 C 44.885 46.208 46.229 44.864 46.229 43.208 L 46.229 19.465 L 21.116 19.446 C 20.564 19.445 19.668 19.445 19.116 19.446 L 1.247 19.465 Z "
     fill="rgb(26,29,35)"
     id="path5" />
  <linearGradient
     id="_lgradient_38"
     x1="0.0484539054073202"
     y1="0.978586981367024"
     x2="0.9123854598403957"
     y2="0.09467854761536354"
     gradientTransform="matrix(18.512,0,0,18.512,14.482,23.571)"
     gradientUnits="userSpaceOnUse">
    <stop
       offset="0"
       stop-opacity="1"
       style="stop-color:#ec006e;stop-opacity:1;"
       id="stop5" />
    <stop
       offset="0.98260868"
       stop-opacity="1"
       style="stop-color:#3b82f6;stop-opacity:1;"
       id="stop6" />
  </linearGradient>
  <path
     d=" M 15.804 28.86 L 15.804 28.86 C 16.534 28.86 17.127 29.452 17.127 30.182 L 17.127 35.471 C 17.127 36.201 16.534 36.794 15.804 36.794 L 15.804 36.794 C 15.074 36.794 14.482 36.201 14.482 35.471 L 14.482 30.182 C 14.482 29.452 15.074 28.86 15.804 28.86 L 15.804 28.86 L 15.804 28.86 L 15.804 28.86 Z  M 19.771 26.215 L 19.771 26.215 C 20.501 26.215 21.093 26.808 21.093 27.538 L 21.093 38.116 C 21.093 38.846 20.501 39.438 19.771 39.438 L 19.771 39.438 C 19.041 39.438 18.449 38.846 18.449 38.116 L 18.449 27.538 C 18.449 26.808 19.041 26.215 19.771 26.215 L 19.771 26.215 L 19.771 26.215 L 19.771 26.215 Z  M 31.672 28.86 L 31.672 28.86 C 30.942 28.86 30.349 29.452 30.349 30.182 L 30.349 35.471 C 30.349 36.201 30.942 36.794 31.672 36.794 L 31.672 36.794 C 32.402 36.794 32.994 36.201 32.994 35.471 L 32.994 30.182 C 32.994 29.452 32.402 28.86 31.672 28.86 L 31.672 28.86 L 31.672 28.86 Z  M 27.705 26.215 L 27.705 26.215 C 26.975 26.215 26.383 26.808 26.383 27.538 L 26.383 38.116 C 26.383 38.846 26.975 39.438 27.705 39.438 L 27.705 39.438 C 28.435 39.438 29.027 38.846 29.027 38.116 L 29.027 27.538 C 29.027 26.808 28.435 26.215 27.705 26.215 L 27.705 26.215 Z  M 23.738 23.571 L 23.738 23.571 C 24.468 23.571 25.06 24.163 25.06 24.893 L 25.06 40.76 C 25.06 41.49 24.468 42.083 23.738 42.083 L 23.738 42.083 C 23.008 42.083 22.416 41.49 22.416 40.76 L 22.416 24.893 C 22.416 24.163 23.008 23.571 23.738 23.571 Z "
     fill-rule="evenodd"
     fill="url(#_lgradient_38)"
     fill-opacity="0.52"
     id="path6" />
  <path
     d=" M 16.322 28.86 L 16.322 28.86 C 17.052 28.86 17.645 29.452 17.645 30.182 L 17.645 35.471 C 17.645 36.201 17.052 36.794 16.322 36.794 L 16.322 36.794 C 15.592 36.794 15 36.201 15 35.471 L 15 30.182 C 15 29.452 15.592 28.86 16.322 28.86 L 16.322 28.86 L 16.322 28.86 L 16.322 28.86 Z  M 20.289 26.215 L 20.289 26.215 C 21.019 26.215 21.611 26.808 21.611 27.538 L 21.611 38.116 C 21.611 38.846 21.019 39.438 20.289 39.438 L 20.289 39.438 C 19.559 39.438 18.967 38.846 18.967 38.116 L 18.967 27.538 C 18.967 26.808 19.559 26.215 20.289 26.215 L 20.289 26.215 L 20.289 26.215 L 20.289 26.215 Z  M 32.19 28.86 L 32.19 28.86 C 31.46 28.86 30.867 29.452 30.867 30.182 L 30.867 35.471 C 30.867 36.201 31.46 36.794 32.19 36.794 L 32.19 36.794 C 32.92 36.794 33.512 36.201 33.512 35.471 L 33.512 30.182 C 33.512 29.452 32.92 28.86 32.19 28.86 L 32.19 28.86 L 32.19 28.86 Z  M 28.223 26.215 L 28.223 26.215 C 27.493 26.215 26.901 26.808 26.901 27.538 L 26.901 38.116 C 26.901 38.846 27.493 39.438 28.223 39.438 L 28.223 39.438 C 28.953 39.438 29.545 38.846 29.545 38.116 L 29.545 27.538 C 29.545 26.808 28.953 26.215 28.223 26.215 L 28.223 26.215 Z  M 24.256 23.571 L 24.256 23.571 C 24.986 23.571 25.578 24.163 25.578 24.893 L 25.578 40.76 C 25.578 41.49 24.986 42.083 24.256 42.083 L 24.256 42.083 C 23.526 42.083 22.934 41.49 22.934 40.76 L 22.934 24.893 C 22.934 24.163 23.526 23.571 24.256 23.571 Z "
     fill-rule="evenodd"
     fill="rgb(103,106,115)"
     fill-opacity="0.89"
     id="path7" />
</svg>
