<?xml version="1.0" encoding="UTF-8" standalone="no"?>
<!-- Generator: Gravit.io -->

<svg
   style="isolation:isolate"
   viewBox="0 0 48 48"
   width="48pt"
   height="48pt"
   version="1.1"
   id="svg13"
   sodipodi:docname="folder-documents.svg"
   inkscape:version="1.4.4 (unknown)"
   xmlns:inkscape="http://www.inkscape.org/namespaces/inkscape"
   xmlns:sodipodi="http://sodipodi.sourceforge.net/DTD/sodipodi-0.dtd"
   xmlns="http://www.w3.org/2000/svg"
   xmlns:svg="http://www.w3.org/2000/svg">
  <sodipodi:namedview
     id="namedview13"
     pagecolor="#ffffff"
     bordercolor="#000000"
     borderopacity="0.25"
     inkscape:showpageshadow="2"
     inkscape:pageopacity="0.0"
     inkscape:pagecheckerboard="0"
     inkscape:deskcolor="#d1d1d1"
     inkscape:document-units="pt"
     inkscape:zoom="12.34375"
     inkscape:cx="31.959494"
     inkscape:cy="32"
     inkscape:window-width="1920"
     inkscape:window-height="1010"
     inkscape:window-x="0"
     inkscape:window-y="0"
     inkscape:window-maximized="1"
     inkscape:current-layer="svg13" />
  <linearGradient
     id="_lgradient_29"
     x1="0"
     y1="0.5"
     x2="1"
     y2="0.5"
     gradientTransform="matrix(44.982,0,0,10,1.247,10.208)"
     gradientUnits="userSpaceOnUse">
    <stop
       offset="0"
       stop-opacity="1"
       style="stop-color:#ec006e;stop-opacity:1;"
       id="stop1" />
    <stop
       offset="1"
       stop-opacity="1"
       style="stop-color:#3b82f6;stop-opacity:1;"
       id="stop2" />
  </linearGradient>
  <path
     d=" M 1.247 13.3 L 1.247 20.208 L 46.229 20.208 L 46.229 17.465 C 46.229 15.809 44.885 14.464 43.229 14.463 L 21.116 14.446 C 20.564 14.445 19.799 14.128 19.409 13.737 L 17.299 11.623 C 16.519 10.842 14.99 10.214 13.886 10.221 L 4.247 10.281 C 2.591 10.292 1.247 11.644 1.247 13.3 Z "
     fill="url(#_lgradient_29)"
     id="path2" />
  <path
     d=" M 1.738 13.715 L 1.738 40.791 C 1.738 42.404 3.048 43.714 4.662 43.714 L 42.814 43.714 C 44.428 43.714 45.738 42.404 45.738 40.791 L 45.738 17.759 C 45.738 16.145 44.428 14.834 42.814 14.833 L 21.17 14.817 C 20.632 14.816 19.885 14.508 19.504 14.129 L 17.44 12.076 C 16.677 11.318 15.184 10.708 14.108 10.714 L 4.662 10.773 C 3.048 10.783 1.738 12.101 1.738 13.715 Z "
     fill="rgb(26,29,35)"
     id="path3" />
  <path
     d=" M 6.5 16 L 41.5 16 C 42.604 16 43.5 16.896 43.5 18 L 43.5 28 C 43.5 29.104 42.604 30 41.5 30 L 6.5 30 C 5.396 30 4.5 29.104 4.5 28 L 4.5 18 C 4.5 16.896 5.396 16 6.5 16 Z "
     fill="rgb(168,168,168)"
     id="path4" />
  <path
     d=" M 1.247 19.465 L 1.247 43.208 C 1.247 44.864 2.591 46.208 4.247 46.208 L 43.229 46.208 C 44.885 46.208 46.229 44.864 46.229 43.208 L 46.229 19.465 L 21.116 19.446 C 20.564 19.445 19.668 19.445 19.116 19.446 L 1.247 19.465 Z "
     fill="rgb(26,29,35)"
     id="path5" />
  <path
     d="M 15.62 23.18 L 29.38 23.18 C 30.484 23.18 31.38 24.076 31.38 25.18 L 31.38 41.48 C 31.38 42.584 30.484 43.48 29.38 43.48 L 15.62 43.48 C 14.516 43.48 13.62 42.584 13.62 41.48 L 13.62 25.18 C 13.62 24.076 14.516 23.18 15.62 23.18 Z"
     style="stroke:none;fill:#A1A5AE;stroke-miterlimit:10;"
     id="path6" />
  <defs
     id="defs6">
    <filter
       id="guFgBTeaItUK3KuavmqffCFNTsqfF0Wd"
       x="-1.3293538"
       y="-1.0152376"
       width="3.4897887"
       height="3.1782585"
       filterUnits="objectBoundingBox"
       color-interpolation-filters="sRGB">
      <feGaussianBlur
         in="SourceGraphic"
         stdDeviation="8.587218125678056"
         id="feGaussianBlur6" />
      <feOffset
         dx="-3"
         dy="3"
         result="pf_100_offsetBlur"
         id="feOffset6" />
      <feFlood
         flood-color="#000000"
         flood-opacity="0.65"
         id="feFlood6" />
      <feComposite
         in2="pf_100_offsetBlur"
         operator="in"
         result="pf_100_dropShadow"
         id="feComposite6" />
      <feBlend
         in="SourceGraphic"
         in2="pf_100_dropShadow"
         mode="normal"
         id="feBlend6" />
    </filter>
  </defs>
  <g
     filter="url(#guFgBTeaItUK3KuavmqffCFNTsqfF0Wd)"
     style="mix-blend-mode:normal;"
     opacity="0.89"
     id="g7">
    <path
       d="M 18.62 22.18 L 32.38 22.18 C 33.484 22.18 34.38 23.076 34.38 24.18 L 34.38 40.48 C 34.38 41.584 33.484 42.48 32.38 42.48 L 18.62 42.48 C 17.516 42.48 16.62 41.584 16.62 40.48 L 16.62 24.18 C 16.62 23.076 17.516 22.18 18.62 22.18 Z"
       style="stroke:none;fill:#676A73;stroke-miterlimit:10;"
       id="path7" />
  </g>
  <defs
     id="defs10">
    <filter
       id="kH3gQZda3k59Lb0udB0G9EijRJq3Pp40"
       x="-1.7233083"
       y="-3.0991464"
       width="4.2276385"
       height="7.6494207"
       filterUnits="objectBoundingBox"
       color-interpolation-filters="sRGB">
      <feGaussianBlur
         in="SourceGraphic"
         stdDeviation="8.587218125678056"
         id="feGaussianBlur7" />
      <feOffset
         dx="-3"
         dy="3"
         result="pf_100_offsetBlur"
         id="feOffset7" />
      <feFlood
         flood-color="#000000"
         flood-opacity="0.65"
         id="feFlood7" />
      <feComposite
         in2="pf_100_offsetBlur"
         operator="in"
         result="pf_100_dropShadow"
         id="feComposite7" />
      <feBlend
         in="SourceGraphic"
         in2="pf_100_dropShadow"
         mode="normal"
         id="feBlend7" />
    </filter>
    <linearGradient
       id="_lgradient_30"
       x1="0.0484539054073202"
       y1="0.978586981367024"
       x2="0.9123854598403957"
       y2="0.09467854761536354">
      <stop
         offset="0%"
         style="stop-color:#3BE4EA"
         id="stop7" />
      <stop
         offset="98.26086956521739%"
         style="stop-color:#1A93ED"
         id="stop8" />
    </linearGradient>
    <linearGradient
       id="_lgradient_31"
       x1="0.0484539054073202"
       y1="0.978586981367024"
       x2="0.9123854598403957"
       y2="0.09467854761536354">
      <stop
         offset="0"
         style="stop-color:#ec006e;stop-opacity:1;"
         id="stop9" />
      <stop
         offset="0.98260868"
         style="stop-color:#3b82f6;stop-opacity:1;"
         id="stop10" />
    </linearGradient>
  </defs>
  <g
     filter="url(#kH3gQZda3k59Lb0udB0G9EijRJq3Pp40)"
     style="mix-blend-mode:normal;"
     opacity="0.78"
     id="g10">
    <path
       d="M 19.655 23.89 L 31.345 23.89 C 31.9 23.89 32.35 24.341 32.35 24.896 L 32.35 29.534 C 32.35 30.089 31.9 30.54 31.345 30.54 L 19.655 30.54 C 19.1 30.54 18.65 30.089 18.65 29.534 L 18.65 24.896 C 18.65 24.341 19.1 23.89 19.655 23.89 Z"
       style="stroke:none;fill:url(#_lgradient_31);stroke-miterlimit:10;"
       id="path10" />
  </g>
  <path
     d="M 18.5 31.98 L 32.5 31.98 C 33.052 31.98 33.5 32.359 33.5 32.825 L 33.5 32.825 C 33.5 33.291 33.052 33.67 32.5 33.67 L 18.5 33.67 C 17.948 33.67 17.5 33.291 17.5 32.825 L 17.5 32.825 C 17.5 32.359 17.948 31.98 18.5 31.98 Z"
     style="stroke:none;fill:#A2A5AA;stroke-miterlimit:10;"
     id="path11" />
  <path
     d="M 18.5 38.31 L 32.5 38.31 C 33.052 38.31 33.5 38.689 33.5 39.155 L 33.5 39.155 C 33.5 39.621 33.052 40 32.5 40 L 18.5 40 C 17.948 40 17.5 39.621 17.5 39.155 L 17.5 39.155 C 17.5 38.689 17.948 38.31 18.5 38.31 Z"
     style="stroke:none;fill:#A2A5AA;stroke-miterlimit:10;"
     id="path12" />
  <path
     d="M 18.5 35.31 L 32.5 35.31 C 33.052 35.31 33.5 35.689 33.5 36.155 L 33.5 36.155 C 33.5 36.621 33.052 37 32.5 37 L 18.5 37 C 17.948 37 17.5 36.621 17.5 36.155 L 17.5 36.155 C 17.5 35.689 17.948 35.31 18.5 35.31 Z"
     style="stroke:none;fill:#A2A5AA;stroke-miterlimit:10;"
     id="path13" />
</svg>
